<?xml version="1.0" encoding="utf-8"?>
<!-- Generator: Adobe Illustrator 26.5.0, SVG Export Plug-In . SVG Version: 6.00 Build 0)  -->
<svg version="1.1" id="Layer_1" xmlns="http://www.w3.org/2000/svg" xmlns:xlink="http://www.w3.org/1999/xlink" x="0px" y="0px"
	 viewBox="0 0 512 512" style="enable-background:new 0 0 512 512;" xml:space="preserve">
<style type="text/css">
	.st0{fill:#00AEEF;}
	.st1{fill:#003768;}
</style>
<g id="XMLID_1_">
	<path id="XMLID_7_" class="st0" d="M258.9,233.16c48.85,0,88.33-39.49,88.33-88.33S307.6,56.5,258.9,56.5
		c-48.85,0-88.33,39.63-88.33,88.33S210.06,233.16,258.9,233.16"/>
	<path id="XMLID_6_" class="st0" d="M324.13,216.2c-16.82,18.28-46.51,36.56-84.68,36.56c-29.54,0-54.99-11.55-71.22-24.28
		C71.71,238.57,0.05,252.91,0.05,252.91v39.05H511.9v-80.58C511.9,211.37,424.16,210.93,324.13,216.2"/>
	<polyline id="XMLID_5_" class="st1" points="60.89,406.32 60.89,453.84 0.05,453.84 0.05,327.2 60.89,327.2 60.89,384.23 
		61.18,384.23 97.01,327.2 169.84,327.2 116.46,392.71 166.91,453.84 97.3,453.84 61.33,406.32 60.89,406.32 	"/>
	<path id="XMLID_4_" class="st1" d="M511.9,448.58c-14.33,4.39-33.2,7.02-50.02,7.02c-60.11,0-104.27-17.11-104.27-66.83
		c0-44.9,42.85-64.49,101.35-64.49c16.23,0,36.85,1.75,53.09,7.02v43.58c-11.99-7.31-23.98-11.7-41.09-11.7
		c-22.38,0-44.6,10.97-44.6,26.91s22.23,26.91,44.6,26.91c16.82,0,29.1-4.68,41.09-11.55L511.9,448.58"/>
	<path class="st1" d="M179.78,327.2h122.84c31.88,0,42.41,12.43,42.41,31.73c0,21.64-19.3,31-39.19,32.17v0.29
		c20.33,1.61,40.22,3.95,40.22,29.4c0,16.67-10.53,33.05-45.63,33.05h-120.8V327.2 M240.62,428.11h31.73
		c11.85,0,15.94-4.97,15.94-12.14c0-7.31-4.09-12.43-15.79-12.43h-31.88L240.62,428.11L240.62,428.11z M240.62,380.87h30.27
		c11.7,0,16.23-4.68,16.23-11.99c0-8.34-4.68-12.43-15.5-12.43h-31.15v24.42H240.62z"/>
</g>
</svg>
